<?xml version="1.0" encoding="iso-8859-1"?>
<!-- Generator: Adobe Illustrator 16.0.0, SVG Export Plug-In . SVG Version: 6.00 Build 0)  -->
<!DOCTYPE svg PUBLIC "-//W3C//DTD SVG 1.1//EN" "http://www.w3.org/Graphics/SVG/1.1/DTD/svg11.dtd">
<svg version="1.1" id="Capa_1" xmlns="http://www.w3.org/2000/svg" xmlns:xlink="http://www.w3.org/1999/xlink" x="0px" y="0px"
	 width="582.037px" height="582.037px" viewBox="0 0 582.037 582.037" style="enable-background:new 0 0 582.037 582.037;"
	 xml:space="preserve">
<g>
	<g id="Layer_1_6_">
		<path d="M580.443,14.981c1.275-2.55,1.275-5.1,0-7.65c-1.275-2.55-5.1-2.55-7.65,0l-195.074,150.45L310.144,34.106
			c-3.825-7.65-11.476-11.475-19.125-11.475c-7.65,0-15.3,5.1-19.125,11.475l-65.025,119.85l-191.25-153
			c-2.55-1.275-5.1-1.275-7.65,0c-2.55,2.55-2.55,5.1,0,7.65l150.45,193.8L34.743,269.981c-7.65,3.825-11.475,11.475-11.475,19.125
			s3.825,15.299,11.475,19.125l119.85,65.025l-153,191.25c-1.275,2.55-1.275,5.1,0,7.649c2.55,2.55,5.1,2.55,7.65,0l195.075-147.899
			l67.575,123.675c3.825,7.649,11.475,11.475,19.125,11.475c7.65,0,15.3-3.825,19.125-11.475l65.024-119.851l191.25,153
			c2.551,1.275,5.101,1.275,7.65,0c2.55-1.274,2.55-5.1,0-7.649L423.618,377.08l123.675-67.574
			c7.65-3.825,11.476-11.476,11.476-19.125c0-7.65-3.825-15.3-11.476-19.125l-119.85-65.025L580.443,14.981z M291.018,374.53
			c-45.9,0-84.15-36.975-84.15-84.149c0-45.9,36.975-84.15,84.15-84.15s84.15,36.975,84.15,84.15
			C375.168,337.556,336.918,374.53,291.018,374.53z"/>
	</g>
</g>
<g>
</g>
<g>
</g>
<g>
</g>
<g>
</g>
<g>
</g>
<g>
</g>
<g>
</g>
<g>
</g>
<g>
</g>
<g>
</g>
<g>
</g>
<g>
</g>
<g>
</g>
<g>
</g>
<g>
</g>
</svg>
