<?xml version="1.0" encoding="iso-8859-1"?>
<!-- Generator: Adobe Illustrator 16.0.0, SVG Export Plug-In . SVG Version: 6.00 Build 0)  -->
<!DOCTYPE svg PUBLIC "-//W3C//DTD SVG 1.1//EN" "http://www.w3.org/Graphics/SVG/1.1/DTD/svg11.dtd">
<svg version="1.1" id="Capa_1" xmlns="http://www.w3.org/2000/svg" xmlns:xlink="http://www.w3.org/1999/xlink" x="0px" y="0px"
	 width="45.603px" height="45.604px" viewBox="0 0 45.603 45.604" style="enable-background:new 0 0 45.603 45.604;"
	 xml:space="preserve">
<g>
	<g>
		<path d="M22.802,0C13.296,0,5.591,7.705,5.591,17.21c0,6.817,8.854,19.862,13.86,26.696c0.783,1.066,2.027,1.697,3.351,1.697
			s2.568-0.629,3.35-1.697c5.008-6.834,13.86-19.879,13.86-26.696C40.012,7.705,32.307,0,22.802,0z M22.802,27.895
			c-5.615,0-10.185-4.568-10.185-10.185s4.57-10.185,10.185-10.185c5.616,0,10.186,4.569,10.186,10.185S28.418,27.895,22.802,27.895
			z"/>
		<path d="M22.802,11.516c-3.415,0-6.194,2.778-6.194,6.194c0,3.415,2.779,6.192,6.194,6.192s6.193-2.777,6.193-6.192
			C28.996,14.294,26.217,11.516,22.802,11.516z"/>
	</g>
</g>
<g>
</g>
<g>
</g>
<g>
</g>
<g>
</g>
<g>
</g>
<g>
</g>
<g>
</g>
<g>
</g>
<g>
</g>
<g>
</g>
<g>
</g>
<g>
</g>
<g>
</g>
<g>
</g>
<g>
</g>
</svg>
